<?xml version="1.0" standalone="no"?>
<!DOCTYPE svg PUBLIC "-//W3C//DTD SVG 20010904//EN"
 "http://www.w3.org/TR/2001/REC-SVG-20010904/DTD/svg10.dtd">
<svg version="1.0" xmlns="http://www.w3.org/2000/svg"
 width="300.000000pt" height="300.000000pt" viewBox="0 0 300.000000 300.000000"
 preserveAspectRatio="xMidYMid meet">
<metadata>
Created by potrace 1.14, written by Peter Selinger 2001-2017
</metadata>
<g transform="translate(0.000000,300.000000) scale(0.100000,-0.100000)"
fill="#000000" stroke="none">
<path d="M2035 2119 c-3 -4 2 -6 10 -5 21 3 28 13 10 13 -9 0 -18 -4 -20 -8z"/>
<path d="M2090 2126 c0 -2 7 -7 16 -10 8 -3 12 -2 9 4 -6 10 -25 14 -25 6z"/>
<path d="M2050 2080 c0 -5 5 -10 11 -10 5 0 7 5 4 10 -3 6 -8 10 -11 10 -2 0
-4 -4 -4 -10z"/>
<path d="M2106 2078 c3 -5 10 -6 15 -3 13 9 11 12 -6 12 -8 0 -12 -4 -9 -9z"/>
<path d="M595 1760 l-70 -71 -1 -159 c-1 -88 1 -160 5 -161 9 -2 64 -2 79 0 8
1 12 21 12 65 l0 65 83 3 c140 5 136 8 139 -70 l3 -67 35 -1 c47 0 62 6 56 22
-8 22 5 17 37 -13 17 -16 27 -22 23 -15 -9 15 10 16 19 2 5 -8 12 -7 22 2 19
15 23 15 34 -4 5 -7 9 -8 9 -3 0 6 41 10 108 10 98 0 109 2 132 22 l25 23 21
-24 c19 -19 31 -23 78 -21 34 1 56 -3 56 -9 0 -6 4 -5 9 2 9 14 32 13 43 -3 5
-7 8 -6 8 0 0 7 28 10 72 10 62 -1 74 2 95 23 25 25 25 22 23 137 -1 98 -1
105 -11 100 -3 -3 -12 1 -18 9 -9 10 -42 13 -141 12 -72 -1 -133 0 -138 3 -4
4 -7 22 -8 43 l-1 36 115 1 c110 1 114 1 109 -19 -5 -20 0 -23 36 -23 9 0 17
-5 17 -11 0 -6 4 -6 9 2 4 8 11 13 15 13 20 -3 22 3 21 44 -2 32 -9 53 -25 70
-23 25 -27 25 -183 25 -156 0 -160 -1 -182 -24 l-23 -25 -23 25 c-22 23 -26
24 -179 24 -143 0 -159 -2 -180 -20 -13 -11 -25 -20 -27 -20 -2 0 -1 9 2 20 6
19 2 20 -132 20 l-139 0 -69 -70z m245 -95 l0 -65 -110 0 c-107 0 -110 1 -110
22 0 13 18 41 42 65 41 42 43 43 110 43 l68 0 0 -65z m410 45 c0 -21 1 -22 53
-24 31 -1 32 -2 33 -49 1 -80 19 -90 158 -90 74 0 113 -4 109 -10 -4 -6 -1 -7
8 -1 34 21 45 14 45 -29 l0 -42 -111 0 c-81 0 -110 3 -111 13 -1 6 -2 17 -3
22 -1 7 -38 10 -102 9 -72 -1 -97 -5 -90 -12 26 -26 9 -32 -96 -33 -60 -1
-110 2 -113 6 -4 6 -5 222 -1 253 1 4 51 7 111 7 103 0 110 -1 110 -20z"/>
<path d="M2183 1728 c-15 -19 -42 -118 -32 -118 4 0 12 6 16 13 10 14 53 19
50 4 -1 -5 3 -11 10 -14 8 -3 7 12 -4 54 -17 66 -25 79 -40 61z m13 -70 c-16
-11 -19 -2 -11 29 l8 28 7 -25 c3 -14 2 -28 -4 -32z"/>
<path d="M2358 1732 c-15 -3 -18 -14 -18 -63 l0 -60 38 3 37 3 2 52 c2 61 -11
76 -59 65z m42 -38 c0 -8 -9 -14 -20 -14 -13 0 -20 7 -20 19 0 14 5 18 20 14
11 -3 20 -12 20 -19z m0 -49 c0 -8 -9 -15 -20 -15 -11 0 -20 7 -20 15 0 8 9
15 20 15 11 0 20 -7 20 -15z"/>
<path d="M2453 1733 c-9 -3 -13 -26 -13 -64 l0 -59 35 0 c19 0 35 5 35 10 0 6
-11 10 -25 10 -16 0 -25 6 -25 15 0 9 9 15 25 15 14 0 25 5 25 10 0 6 -11 10
-25 10 -18 0 -25 5 -25 19 0 16 5 19 25 15 14 -2 25 0 25 6 0 5 -3 10 -7 11
-5 0 -15 2 -23 3 -8 2 -21 1 -27 -1z"/>
<path d="M2543 1733 c-16 -6 -18 -123 -3 -123 6 0 10 11 10 25 0 14 5 25 10
25 6 0 16 -11 22 -25 11 -25 35 -37 25 -12 -3 6 -8 20 -12 30 -4 10 -3 17 4
17 15 0 14 60 -1 61 -7 0 -20 2 -28 3 -8 2 -21 1 -27 -1z m45 -36 c2 -12 -3
-17 -17 -17 -14 0 -21 6 -21 19 0 24 34 22 38 -2z"/>
<path d="M2653 1732 c-13 -2 -23 -8 -23 -13 0 -6 4 -8 9 -4 16 9 25 -16 22
-62 -1 -24 3 -43 8 -43 5 0 11 24 13 53 2 35 7 51 16 50 6 -2 12 3 12 11 0 14
-8 15 -57 8z"/>
<path d="M2250 1670 l0 -60 35 0 c19 0 35 5 35 10 0 6 -11 10 -25 10 -23 0
-25 3 -25 50 0 28 -4 50 -10 50 -6 0 -10 -27 -10 -60z"/>
<path d="M2755 1718 c-36 -104 -39 -131 -12 -95 14 19 45 17 57 -3 17 -28 18
-4 3 53 -15 54 -38 75 -48 45z m21 -60 c-16 -11 -19 -2 -11 29 l8 28 7 -25 c3
-14 2 -28 -4 -32z"/>
<path d="M2163 1515 c-10 -7 -13 -25 -11 -60 3 -48 4 -50 36 -53 18 -2 32 1
32 7 0 6 -12 11 -26 11 -23 0 -25 3 -22 43 3 37 6 42 26 39 13 -2 22 2 22 10
0 16 -36 18 -57 3z"/>
<path d="M2251 1520 c-13 -7 -12 -120 0 -120 5 0 9 11 9 25 0 14 5 25 10 25 6
0 16 -11 22 -25 15 -32 30 -33 18 0 -6 15 -6 26 0 30 14 9 12 52 -2 61 -16 10
-45 12 -57 4z m47 -33 c2 -12 -3 -17 -17 -17 -14 0 -21 6 -21 19 0 24 34 22
38 -2z"/>
<path d="M2512 1491 c4 -48 -9 -49 -31 -3 -26 51 -41 40 -41 -28 0 -66 17 -83
22 -22 l3 37 23 -37 c13 -21 28 -38 33 -38 13 0 11 117 -2 126 -8 5 -10 -6 -7
-35z"/>
<path d="M2561 1522 c-6 -2 -11 -29 -11 -63 l0 -59 35 0 c19 0 35 5 35 10 0 6
-11 10 -25 10 -16 0 -25 6 -25 15 0 9 9 15 25 15 14 0 25 5 25 10 0 6 -12 10
-26 10 -19 0 -25 4 -22 17 2 10 10 18 18 19 36 2 43 4 37 11 -8 7 -49 11 -66
5z"/>
<path d="M2361 1513 c1 -4 0 -10 -1 -13 -1 -3 -3 -12 -5 -20 -2 -8 -8 -30 -14
-47 -9 -32 3 -49 15 -19 7 17 42 15 54 -4 18 -29 19 -2 2 51 -11 35 -23 55
-35 57 -10 2 -17 0 -16 -5z m25 -65 c-14 -9 -20 7 -11 30 6 15 8 15 15 -3 4
-12 3 -23 -4 -27z"/>
<path d="M345 1462 c-16 -2 -27 -20 -46 -70 -21 -59 -28 -67 -54 -72 l-30 -5
-3 -107 -3 -107 28 -3 c27 -3 28 -6 29 -60 3 -80 29 -121 95 -141 24 -8 76 19
95 48 15 23 20 52 23 136 1 15 61 16 656 17 604 0 655 -1 656 -16 1 -10 1 -35
0 -57 -1 -53 30 -102 75 -121 31 -13 38 -13 67 1 49 23 70 66 68 137 -1 55 1
60 18 55 38 -10 45 7 44 108 -1 101 -4 111 -38 117 -15 2 -26 21 -43 70 -24
66 -24 66 -65 70 -23 1 -58 1 -77 -2 l-35 -5 0 -67 0 -68 -280 0 c-154 0 -450
0 -658 -1 -208 0 -381 2 -385 5 -4 3 -7 32 -6 66 0 33 -3 63 -9 67 -10 6 -90
10 -122 5z m63 -63 c-16 -10 -33 5 -23 21 5 8 11 8 21 -1 12 -10 12 -14 2 -20z
m1487 13 c0 -18 -20 -15 -23 4 -3 10 1 15 10 12 7 -3 13 -10 13 -16z m19 -433
c-8 -14 -34 -11 -34 4 0 8 3 17 7 20 9 9 34 -13 27 -24z m-1524 6 c0 -8 -6
-15 -14 -15 -17 0 -28 14 -19 24 12 12 33 6 33 -9z"/>
<path d="M1466 1342 c-3 -5 1 -9 9 -9 8 0 12 4 9 9 -3 4 -7 8 -9 8 -2 0 -6 -4
-9 -8z"/>
<path d="M2167 1298 c-32 -18 -14 -68 25 -68 10 0 18 -7 18 -15 0 -10 -10 -15
-30 -15 -16 0 -30 -5 -30 -11 0 -6 16 -9 38 -7 34 3 37 6 37 33 0 25 -4 30
-28 33 -39 5 -33 38 6 35 15 -1 27 2 27 7 0 6 -3 10 -7 11 -5 0 -15 2 -24 4
-8 1 -23 -1 -32 -7z"/>
<path d="M2255 1301 c-3 -2 -5 -31 -5 -63 l0 -58 41 0 c24 0 38 4 34 10 -3 6
-17 10 -31 10 -15 0 -24 6 -24 15 0 9 9 15 24 15 14 0 28 5 31 10 4 6 -7 10
-25 10 -25 0 -31 4 -28 18 2 10 12 17 26 16 12 -1 22 4 22 10 0 11 -56 17 -65
7z"/>
<path d="M2363 1302 c-21 -3 -23 -9 -23 -63 0 -33 4 -59 10 -59 6 0 10 11 10
25 0 14 5 25 10 25 6 0 16 -11 22 -25 15 -32 30 -33 18 0 -6 15 -6 26 0 30 17
10 11 54 -7 63 -10 4 -28 6 -40 4z m37 -38 c0 -8 -9 -14 -20 -14 -19 0 -27 19
-14 33 10 9 34 -4 34 -19z"/>
<path d="M2547 1303 c-11 -10 -8 -123 3 -123 6 0 10 28 10 65 0 65 -1 71 -13
58z"/>
<path d="M2590 1295 c-6 -7 -10 -35 -8 -62 3 -46 4 -48 36 -51 18 -2 32 1 32
7 0 6 -12 11 -26 11 -23 0 -25 3 -22 43 3 36 6 42 26 41 19 -1 34 15 15 17 -5
0 -16 2 -25 4 -9 2 -22 -3 -28 -10z"/>
<path d="M2688 1302 c-15 -3 -18 -14 -18 -63 l0 -59 35 0 c19 0 35 5 35 10 0
6 -11 10 -25 10 -16 0 -25 6 -25 15 0 9 9 15 25 15 14 0 25 5 25 10 0 6 -12
10 -26 10 -19 0 -25 4 -22 18 2 11 11 16 26 14 13 -2 22 2 22 10 0 14 -18 17
-52 10z"/>
<path d="M2446 1248 c27 -90 41 -90 68 0 11 39 12 52 3 49 -7 -2 -12 -8 -13
-13 -2 -22 -17 -64 -23 -64 -10 0 -31 61 -25 71 3 5 -2 9 -10 9 -13 0 -13 -6
0 -52z"/>
</g>
</svg>
